<?xml version="1.0" standalone="no"?>
<!DOCTYPE svg PUBLIC "-//W3C//DTD SVG 20010904//EN"
 "http://www.w3.org/TR/2001/REC-SVG-20010904/DTD/svg10.dtd">
<svg version="1.0" xmlns="http://www.w3.org/2000/svg"
 width="512.000000pt" height="512.000000pt" viewBox="0 0 512.000000 512.000000"
 preserveAspectRatio="xMidYMid meet">
<metadata>
Created by potrace 1.15, written by Peter Selinger 2001-2017
</metadata>
<g transform="translate(0.000000,512.000000) scale(0.100000,-0.100000)"
fill="#000000" stroke="none">
<path d="M2260 4956 c-1083 -138 -1920 -946 -2097 -2021 -14 -87 -18 -166 -18
-375 0 -296 13 -402 80 -643 177 -648 642 -1208 1249 -1507 233 -114 461 -186
716 -227 161 -25 547 -25 710 1 1057 165 1867 982 2026 2041 25 166 25 515 1
675 -102 662 -437 1220 -970 1612 -297 218 -648 365 -1027 429 -161 27 -514
35 -670 15z m601 -206 c934 -137 1675 -849 1853 -1782 41 -213 46 -543 11
-748 -78 -465 -292 -884 -616 -1209 l-84 -85 -3 897 -2 897 70 114 c38 63 70
117 70 120 0 3 -16 6 -36 8 l-36 3 -221 572 c-122 315 -224 573 -227 573 -3 0
-104 -259 -225 -575 l-220 -575 -37 0 c-21 0 -38 -3 -38 -6 0 -3 32 -54 70
-114 l70 -109 0 -165 0 -166 -180 0 -180 0 0 433 0 434 75 116 c41 65 75 119
75 122 0 3 -17 5 -39 5 l-38 0 -219 564 c-121 310 -223 565 -228 567 -5 2
-108 -251 -229 -563 l-220 -568 -39 0 c-21 0 -38 -3 -38 -6 0 -3 32 -57 70
-119 l70 -113 0 -611 0 -611 -180 0 -180 0 0 88 0 88 70 110 c38 60 70 112 70
116 0 4 -19 8 -42 10 l-41 3 -208 545 c-227 593 -228 595 -235 588 -2 -3 -103
-259 -223 -569 l-219 -564 -41 -3 c-23 -2 -41 -5 -41 -7 0 -2 31 -54 70 -116
l70 -114 0 -624 0 -625 -41 39 c-23 22 -77 82 -120 134 -525 625 -660 1489
-352 2246 301 742 980 1261 1783 1364 132 17 436 12 581 -9z m-121 -1755 l0
-175 -90 0 -90 0 0 175 0 175 90 0 90 0 0 -175z m1100 -880 l0 -175 -90 0 -90
0 0 175 0 175 90 0 90 0 0 -175z m-2470 -220 l0 -175 -90 0 -90 0 0 175 0 175
90 0 90 0 0 -175z m510 -295 l0 -180 -90 0 -90 0 0 180 0 180 90 0 90 0 0
-180z m1710 -305 l0 -175 -90 0 -90 0 0 175 0 175 90 0 90 0 0 -175z"/>
</g>
</svg>
