<?xml version="1.0" standalone="no"?>
<!DOCTYPE svg PUBLIC "-//W3C//DTD SVG 20010904//EN"
 "http://www.w3.org/TR/2001/REC-SVG-20010904/DTD/svg10.dtd">
<svg version="1.0" xmlns="http://www.w3.org/2000/svg"
 width="1194.000000pt" height="1201.000000pt" viewBox="0 0 1194.000000 1201.000000"
 preserveAspectRatio="xMidYMid meet">
<metadata>
Created by potrace 1.15, written by Peter Selinger 2001-2017
</metadata>
<g transform="translate(0.000000,1201.000000) scale(0.100000,-0.100000)"
fill="#000000" stroke="none">
<path d="M1040 11805 c-102 -84 -186 -160 -187 -167 -1 -7 251 -317 561 -688
l563 -675 -141 -145 c-78 -80 -188 -199 -246 -265 -836 -953 -1330 -2122
-1435 -3395 -19 -228 -19 -712 0 -940 117 -1407 706 -2682 1700 -3675 713
-714 1562 -1215 2530 -1494 526 -151 1036 -221 1615 -221 775 0 1455 129 2175
413 417 164 887 421 1236 675 l57 41 516 -620 c284 -341 521 -619 526 -617 20
7 380 310 380 319 0 8 -904 1104 -1003 1216 l-19 22 63 57 c207 186 508 510
695 749 574 731 973 1620 1140 2535 68 371 94 669 94 1070 0 171 -6 369 -15
470 -137 1651 -936 3134 -2240 4156 -893 700 -1981 1123 -3135 1219 -364 30
-897 16 -1260 -34 -997 -138 -1927 -518 -2718 -1111 -104 -77 -126 -90 -137
-79 -7 8 -261 312 -564 677 -303 364 -554 662 -558 662 -5 0 -91 -70 -193
-155z m5340 -466 c610 -40 1224 -193 1795 -447 197 -87 532 -265 648 -344 l36
-24 -37 -36 c-45 -43 -76 -60 -96 -52 -8 3 -23 31 -34 62 -14 43 -24 58 -40
60 -25 4 -35 -13 -52 -86 l-12 -53 -32 73 c-47 109 -65 97 -81 -55 -7 -58 -7
-58 -28 -42 -116 85 -144 91 -161 35 -6 -19 -24 -57 -40 -84 -43 -71 -26 -101
106 -181 45 -28 47 -57 6 -89 -18 -13 -103 -61 -187 -106 -522 -275 -724 -525
-1103 -1369 -176 -394 -201 -434 -422 -700 -143 -171 -179 -204 -261 -242 -85
-40 -183 -49 -511 -49 -587 0 -881 35 -1076 128 l-77 37 -230 277 -231 278 6
200 7 201 -26 27 c-39 40 -55 87 -77 229 -35 219 -118 525 -176 648 -100 213
-514 486 -672 443 -46 -13 -137 -104 -147 -146 -9 -44 -37 -60 -120 -66 l-70
-6 -140 170 c-77 94 -140 175 -140 180 0 26 428 319 645 442 925 526 1952 759
3030 687z m3125 -1295 c841 -723 1446 -1720 1704 -2806 170 -714 189 -1480 55
-2211 -172 -948 -602 -1829 -1250 -2567 -100 -114 -393 -409 -447 -451 -24
-18 -31 -20 -42 -8 -11 12 -1255 1509 -1569 1887 -132 160 -130 150 -41 192
31 15 62 20 137 20 145 0 186 12 276 80 148 112 271 260 512 621 185 277 204
327 221 597 18 283 -10 643 -72 922 -16 74 -39 209 -50 300 -44 372 -52 426
-74 518 -13 53 -42 155 -64 225 -59 190 -78 295 -101 577 -11 140 -30 332 -41
425 -27 217 -24 403 7 455 11 19 28 36 38 38 9 2 51 -20 93 -49 98 -67 146
-75 228 -35 69 34 153 110 197 178 30 49 33 59 33 133 0 44 -9 122 -19 172
-17 87 -17 94 -2 118 31 47 55 51 179 26 111 -21 191 -27 221 -15 29 11 16 48
-45 129 -78 103 -90 128 -104 200 -11 62 -10 61 -85 95 -11 5 -16 30 -20 88
-5 64 -11 88 -29 113 -13 18 -30 51 -36 73 -9 32 -19 43 -41 50 -53 16 -59 22
-58 63 1 79 6 80 86 16 40 -31 132 -108 203 -169z m-7059 -334 c71 -85 135
-163 143 -173 13 -16 5 -27 -92 -118 -85 -80 -120 -122 -176 -212 -39 -62 -84
-132 -101 -157 -37 -55 -38 -84 -5 -180 14 -40 25 -77 25 -82 0 -4 -20 -8 -44
-8 -104 0 -110 -90 -21 -349 25 -71 45 -136 45 -143 0 -7 -12 -31 -26 -52 -21
-30 -28 -55 -32 -107 -6 -83 8 -143 48 -206 27 -43 30 -55 30 -134 0 -111 -23
-243 -56 -322 -22 -52 -28 -86 -35 -212 -15 -241 -26 -328 -45 -342 -25 -18
-20 -65 13 -120 38 -66 151 -176 211 -207 27 -14 53 -33 57 -43 8 -21 24 -286
25 -424 l0 -95 160 -215 c88 -117 172 -236 185 -263 35 -70 33 -126 -7 -196
-17 -30 -45 -80 -62 -110 l-31 -55 0 -245 c0 -214 3 -259 23 -358 66 -327 233
-625 590 -1055 135 -162 170 -192 381 -320 303 -185 475 -277 537 -287 54 -9
393 1 495 15 l36 5 6 -68 c18 -187 0 -437 -38 -520 -47 -103 -206 -222 -377
-283 -48 -18 -88 -34 -88 -37 0 -3 48 -2 108 1 76 3 130 12 187 31 43 14 81
24 83 22 2 -2 -2 -51 -9 -108 -11 -99 -61 -310 -114 -488 -36 -117 -42 -170
-22 -170 24 0 78 69 142 185 75 134 117 181 170 191 89 16 230 -38 334 -130
90 -79 421 -243 566 -281 78 -20 144 -20 152 1 13 35 -132 148 -230 180 -75
24 -217 100 -282 151 -46 36 -56 49 -53 71 4 34 18 37 263 57 110 8 225 18
256 21 l57 7 19 -54 c11 -30 39 -132 63 -227 l42 -172 -28 -42 c-42 -60 -105
-102 -224 -149 -58 -22 -109 -45 -115 -51 -7 -7 72 -9 260 -5 l270 5 143 -149
c84 -87 155 -152 170 -156 32 -8 48 12 57 73 5 39 11 48 39 59 65 27 270 38
621 32 l340 -5 -45 40 c-99 89 -198 117 -503 143 -102 9 -198 20 -214 24 l-28
8 40 20 c22 11 58 26 80 33 88 28 145 52 145 61 0 15 -65 39 -104 39 -19 0
-83 -12 -142 -26 -78 -19 -135 -26 -208 -26 -133 0 -164 12 -213 89 -109 171
-374 794 -413 975 -16 72 -5 102 61 168 38 38 59 50 99 59 67 14 188 71 249
115 64 47 97 98 115 174 18 78 30 96 131 202 45 47 105 120 134 163 28 43 77
102 108 133 62 60 203 159 297 206 71 36 166 98 186 123 8 9 43 37 78 63 55
39 66 43 73 29 7 -12 1629 -1967 1715 -2068 12 -13 4 -22 -64 -70 -689 -483
-1488 -795 -2337 -914 -436 -61 -1014 -61 -1450 0 -599 84 -1142 252 -1680
523 -1491 748 -2561 2173 -2859 3809 -118 643 -118 1303 0 1946 169 932 591
1807 1222 2536 99 115 342 363 352 359 4 -2 65 -73 136 -158z m2669 -6989 c84
-94 183 -179 273 -234 47 -28 110 -74 139 -101 102 -93 201 -269 264 -468 l27
-88 -267 0 -267 0 -51 68 c-111 146 -176 331 -233 665 -24 145 -26 210 -4 231
14 15 18 15 42 0 15 -10 50 -42 77 -73z"/>
</g>
</svg>
