<?xml version="1.0" standalone="no"?>
<!DOCTYPE svg PUBLIC "-//W3C//DTD SVG 20010904//EN"
 "http://www.w3.org/TR/2001/REC-SVG-20010904/DTD/svg10.dtd">
<svg version="1.0" xmlns="http://www.w3.org/2000/svg"
 width="687.000000pt" height="792.000000pt" viewBox="0 0 687.000000 792.000000"
 preserveAspectRatio="xMidYMid meet">
<metadata>
Created by potrace 1.15, written by Peter Selinger 2001-2017
</metadata>
<g transform="translate(0.000000,792.000000) scale(0.100000,-0.100000)"
fill="#000000" stroke="none">
<path d="M6407 7813 c-4 -3 -7 -19 -7 -35 0 -31 -6 -34 -34 -13 -28 22 -39 19
-58 -16 -25 -42 -23 -54 14 -90 32 -30 32 -31 13 -46 -11 -8 -53 -31 -93 -51
-68 -33 -90 -50 -197 -151 -61 -58 -175 -259 -260 -459 -19 -46 -61 -117 -93
-159 -31 -42 -68 -93 -82 -112 -14 -20 -46 -47 -70 -61 -40 -22 -59 -25 -180
-28 -173 -5 -367 11 -450 37 -56 18 -76 31 -143 96 -104 102 -120 135 -114
235 4 65 2 85 -14 114 -10 20 -19 47 -19 62 0 32 -42 217 -50 224 -4 3 -12 20
-18 37 -16 47 -67 118 -105 146 -64 48 -145 80 -183 74 -39 -7 -74 -32 -74
-53 0 -19 -17 -26 -79 -33 -40 -4 -57 -10 -59 -22 -2 -9 -44 -59 -93 -110 -50
-52 -111 -125 -135 -163 -46 -69 -49 -85 -29 -138 5 -14 2 -18 -13 -18 -12 0
-22 -9 -25 -22 -6 -23 5 -97 23 -142 8 -22 8 -43 -1 -82 -10 -45 -10 -60 4
-96 21 -53 22 -127 3 -189 -8 -25 -17 -92 -21 -148 -4 -55 -11 -101 -16 -101
-31 0 27 -96 89 -147 26 -22 27 -28 32 -134 5 -102 7 -113 28 -127 12 -8 22
-18 22 -23 0 -5 23 -39 50 -77 58 -80 62 -105 24 -177 -25 -48 -26 -55 -20
-170 8 -162 49 -294 111 -361 14 -15 25 -31 25 -37 0 -16 103 -149 162 -209
29 -30 74 -64 99 -76 26 -13 59 -33 73 -45 15 -13 55 -38 91 -56 62 -32 65
-33 178 -29 l116 3 6 -43 c7 -45 1 -111 -17 -179 -12 -49 -44 -77 -130 -114
-32 -13 -58 -28 -58 -33 0 -8 108 0 136 11 10 4 14 -3 14 -28 0 -38 -39 -201
-50 -209 -4 -3 -11 -20 -15 -37 -6 -29 -4 -33 14 -33 15 0 31 15 51 47 17 26
30 52 30 58 0 22 37 45 71 45 40 -1 64 -13 116 -58 51 -46 206 -112 261 -112
23 0 42 4 42 8 0 18 -50 54 -101 73 -29 11 -64 31 -77 44 -13 14 -33 27 -43
30 -10 4 -19 10 -19 15 0 11 38 17 152 25 l87 7 9 -39 c6 -21 16 -62 22 -92
l13 -55 -34 -28 c-51 -43 -53 -44 -82 -52 -59 -14 -24 -26 81 -26 l108 0 59
-60 c65 -66 95 -74 105 -30 5 22 13 26 65 33 33 5 124 6 203 4 78 -3 142 -1
142 4 0 4 -19 19 -43 33 -33 20 -67 28 -160 37 -64 7 -117 15 -117 19 0 8 61
30 83 30 23 0 21 27 -2 35 -11 3 -54 -1 -95 -9 -41 -9 -88 -13 -106 -10 -31 7
-65 43 -87 94 -41 96 -57 130 -63 130 -4 0 -24 52 -46 115 -48 143 -44 157 54
191 75 26 119 64 128 111 4 23 23 49 55 80 27 26 49 52 49 58 0 21 70 93 117
121 27 15 50 30 53 33 10 12 146 99 195 125 28 15 77 47 110 71 51 39 66 45
108 45 26 0 64 7 83 15 46 19 139 115 184 189 19 32 48 72 64 89 38 42 74 120
87 193 12 63 5 290 -11 379 -11 59 -34 215 -49 334 -6 47 -15 87 -19 90 -19
13 -55 185 -68 326 -7 83 -17 182 -20 221 -7 78 1 144 17 144 6 0 22 -9 36
-20 50 -39 124 -17 177 53 20 26 26 45 26 85 0 29 -4 52 -10 52 -14 0 -13 43
2 58 15 15 58 16 58 2 0 -5 20 -10 45 -10 43 0 45 1 45 28 0 15 -11 43 -25 62
-14 19 -25 47 -25 63 0 20 -6 30 -20 34 -13 4 -20 14 -20 31 0 39 -32 100 -55
104 -17 2 -19 9 -17 41 3 34 1 37 -21 37 -19 0 -26 6 -30 30 -6 29 -29 40 -42
20 -12 -19 -26 -10 -23 16 4 37 -14 40 -50 9 -37 -31 -40 -31 -52 1 -12 30
-32 27 -40 -7 l-6 -24 -7 28 c-7 27 -17 33 -30 20z m-1427 -3243 c0 -13 70
-90 82 -90 16 0 118 -74 118 -85 0 -6 14 -26 31 -45 33 -36 57 -82 69 -137 l8
-33 -102 0 c-67 0 -107 4 -117 13 -40 32 -79 131 -104 266 -19 104 -19 121 0
121 8 0 15 -4 15 -10z"/>
<path d="M2668 6604 c-5 -4 -8 -20 -8 -36 0 -33 -2 -33 -36 -12 -13 9 -26 15
-27 13 -43 -61 -43 -88 -1 -108 41 -18 25 -40 -64 -90 -211 -118 -260 -184
-478 -646 -29 -62 -149 -212 -193 -242 -44 -30 -118 -37 -317 -30 -298 11
-374 42 -491 201 l-44 59 3 82 c2 60 -2 91 -13 116 -9 19 -24 73 -33 121 -31
165 -52 215 -114 278 -58 57 -148 110 -188 110 -26 0 -74 -36 -74 -56 0 -18
-40 -34 -86 -34 -20 0 -37 -6 -40 -14 -3 -7 -43 -53 -90 -102 -47 -49 -105
-120 -130 -158 -41 -62 -44 -71 -35 -99 15 -41 14 -47 -8 -47 -10 0 -21 -9
-24 -21 -5 -19 10 -93 31 -148 6 -17 4 -33 -6 -54 -13 -26 -13 -37 -2 -71 21
-67 23 -150 6 -203 -8 -27 -18 -90 -22 -140 -4 -51 -10 -93 -15 -93 -24 0 -3
-38 53 -93 l62 -62 6 -100 5 -100 67 -89 c36 -49 68 -99 71 -112 2 -12 -9 -48
-25 -81 -29 -56 -29 -61 -24 -164 9 -160 45 -256 151 -404 111 -155 143 -185
292 -274 l138 -82 112 3 111 3 7 -42 c6 -45 -1 -129 -16 -180 -11 -36 -55 -72
-131 -109 l-53 -26 54 7 c30 3 63 11 74 17 19 10 20 8 14 -53 -4 -35 -18 -102
-32 -148 -14 -47 -23 -86 -21 -89 9 -8 26 10 53 56 41 72 52 82 94 82 29 0 54
-11 106 -47 85 -59 207 -113 253 -112 l35 0 -38 33 c-21 19 -50 37 -65 41 -39
9 -122 65 -122 81 0 17 20 21 137 29 l92 6 10 -37 c33 -119 35 -143 15 -165
-10 -12 -41 -32 -69 -45 l-50 -23 100 0 101 -1 59 -60 c33 -33 64 -59 69 -57
6 2 13 14 16 28 5 21 14 25 65 32 33 5 120 6 193 4 72 -2 132 -3 132 -1 0 2
-20 15 -43 29 -34 19 -69 28 -150 37 -59 6 -107 15 -107 19 0 4 20 13 45 20
86 25 45 44 -52 24 -82 -18 -127 -11 -153 22 -42 53 -170 355 -170 400 0 34
28 60 89 82 63 23 121 76 121 111 0 11 21 44 48 74 26 30 66 77 89 104 24 28
67 62 103 81 34 18 76 45 93 60 18 15 61 43 97 62 35 19 87 51 114 72 40 29
59 37 93 37 91 0 147 44 261 204 123 171 136 204 138 351 2 111 -11 233 -35
345 -5 25 -15 91 -21 148 -6 56 -25 151 -41 210 -28 98 -41 185 -65 458 -8 87
1 144 22 144 9 0 27 -9 41 -20 14 -11 34 -20 45 -20 29 0 73 26 103 61 25 31
27 38 23 113 l-3 81 83 -4 c94 -4 93 -5 38 68 -14 19 -26 46 -26 59 0 15 -7
26 -20 29 -13 4 -20 14 -20 31 0 36 -32 100 -52 105 -14 4 -17 12 -12 36 6 28
4 31 -20 31 -18 0 -26 5 -26 18 0 9 -5 24 -10 32 -7 12 -12 12 -22 2 -21 -21
-41 -15 -36 13 7 35 -5 39 -32 10 -30 -32 -48 -32 -60 1 -11 28 -30 24 -30 -7
0 -27 -14 -24 -26 7 -5 14 -12 23 -16 18z m-1314 -3072 c16 -18 56 -51 88 -73
32 -22 69 -52 83 -67 28 -29 78 -129 89 -174 l6 -28 -104 0 -105 0 -29 43
c-34 48 -64 139 -82 245 -18 111 -7 123 54 54z"/>
<path d="M3109 3894 c-1 -5 0 -19 1 -31 2 -25 -18 -31 -38 -11 -10 10 -15 10
-22 -2 -5 -8 -10 -23 -10 -32 0 -13 -8 -18 -26 -18 -24 0 -26 -3 -20 -31 5
-24 2 -32 -12 -36 -20 -5 -52 -69 -52 -105 0 -17 -7 -27 -20 -31 -13 -3 -20
-14 -20 -29 0 -13 -12 -40 -26 -59 -55 -73 -56 -72 38 -68 l83 4 -3 -81 c-4
-75 -2 -82 23 -113 30 -35 74 -61 103 -61 11 0 31 9 45 20 14 11 32 20 41 20
21 0 30 -57 22 -144 -24 -273 -37 -360 -65 -458 -16 -59 -35 -154 -41 -210 -6
-57 -16 -123 -21 -148 -24 -112 -37 -234 -35 -345 2 -147 15 -180 138 -351
114 -160 170 -204 261 -204 34 0 53 -8 93 -37 27 -21 79 -53 114 -72 36 -19
79 -47 97 -62 17 -15 59 -42 93 -60 36 -19 79 -53 103 -81 23 -27 63 -74 90
-104 26 -30 47 -63 47 -74 0 -35 58 -88 121 -111 61 -22 89 -48 89 -82 0 -45
-128 -347 -170 -400 -26 -33 -71 -40 -153 -22 -97 20 -138 1 -52 -24 25 -7 45
-16 45 -20 0 -4 -48 -13 -107 -19 -81 -9 -116 -18 -150 -37 -23 -14 -43 -27
-43 -29 0 -2 60 -1 133 1 72 2 159 1 192 -4 51 -7 60 -11 65 -32 3 -14 10 -26
16 -28 5 -2 36 24 69 57 l59 60 101 1 100 0 -50 23 c-27 13 -59 33 -69 45 -20
22 -18 46 15 165 l10 37 92 -6 c117 -8 137 -12 137 -29 0 -16 -83 -72 -122
-81 -15 -4 -44 -22 -65 -41 l-38 -33 35 0 c46 -1 168 53 253 112 52 36 77 47
106 47 42 0 53 -10 94 -82 27 -46 44 -64 53 -56 2 3 -7 42 -21 89 -14 46 -28
113 -32 148 -6 61 -5 63 14 53 11 -6 44 -14 74 -17 l54 -7 -53 26 c-76 37
-120 73 -131 109 -15 51 -22 135 -16 180 l7 42 111 -3 112 -3 138 82 c149 89
181 119 292 274 106 148 142 244 151 404 5 103 5 108 -24 164 -16 33 -27 69
-25 81 3 13 35 63 71 112 l67 89 5 100 6 100 62 62 c56 55 77 93 53 93 -5 0
-11 42 -15 93 -4 50 -14 113 -22 140 -17 53 -15 136 6 203 11 34 11 45 -2 71
-10 21 -12 37 -6 54 21 55 36 129 31 148 -3 12 -14 21 -24 21 -22 0 -23 6 -8
47 9 28 6 37 -35 99 -25 38 -83 109 -130 158 -47 49 -87 95 -90 102 -3 8 -20
14 -40 14 -46 0 -86 16 -86 34 0 20 -48 56 -74 56 -40 0 -130 -53 -188 -110
-62 -63 -83 -113 -114 -278 -9 -48 -24 -102 -33 -121 -11 -25 -15 -56 -13
-116 l3 -82 -44 -59 c-117 -159 -193 -190 -491 -201 -199 -7 -273 0 -317 30
-44 30 -164 180 -193 242 -218 462 -267 528 -478 646 -89 50 -105 72 -64 90
42 20 42 47 -1 108 -1 2 -14 -4 -27 -13 -34 -22 -36 -21 -36 13 0 38 -18 49
-26 16 -7 -29 -24 -34 -24 -6 0 31 -19 35 -30 7 -12 -33 -27 -33 -62 1 -15 15
-28 23 -29 17z m1531 -3121 c-17 -109 -47 -200 -82 -250 l-29 -43 -105 0 -104
0 6 28 c11 45 61 145 89 174 14 15 51 45 83 67 31 21 74 58 96 81 52 57 63 44
46 -57z"/>
</g>
</svg>
