<?xml version="1.0" standalone="no"?>
<!DOCTYPE svg PUBLIC "-//W3C//DTD SVG 20010904//EN"
 "http://www.w3.org/TR/2001/REC-SVG-20010904/DTD/svg10.dtd">
<svg version="1.0" xmlns="http://www.w3.org/2000/svg"
 width="758.000000pt" height="980.000000pt" viewBox="0 0 758.000000 980.000000"
 preserveAspectRatio="xMidYMid meet">
<metadata>
Created by potrace 1.15, written by Peter Selinger 2001-2017
</metadata>
<g transform="translate(0.000000,980.000000) scale(0.100000,-0.100000)"
fill="#000000" stroke="none">
<path d="M6416 9791 c-4 -5 -11 -47 -17 -93 -6 -45 -11 -84 -13 -85 -1 -1 -26
15 -55 37 -54 41 -92 57 -109 46 -5 -3 -12 -18 -15 -34 -3 -16 -20 -52 -38
-81 -27 -43 -31 -56 -23 -79 9 -25 54 -63 126 -107 45 -28 47 -57 6 -89 -18
-13 -103 -61 -187 -106 -522 -275 -724 -525 -1103 -1369 -176 -394 -201 -434
-422 -700 -143 -171 -179 -204 -261 -242 -85 -40 -183 -49 -511 -49 -704 0
-990 48 -1208 204 -116 83 -330 329 -383 441 -23 49 -23 53 -17 263 l7 213
-26 27 c-39 40 -55 87 -77 229 -35 219 -118 525 -176 648 -100 213 -514 486
-672 443 -46 -13 -137 -104 -147 -146 -10 -49 -37 -60 -166 -70 -64 -6 -125
-14 -136 -20 -11 -6 -25 -29 -31 -50 -9 -29 -20 -43 -42 -52 -17 -7 -62 -52
-107 -109 -42 -53 -128 -145 -191 -206 -90 -87 -127 -132 -182 -220 -38 -60
-83 -130 -100 -155 -37 -55 -38 -84 -5 -180 14 -40 25 -77 25 -82 0 -4 -20 -8
-44 -8 -104 0 -110 -90 -21 -349 25 -71 45 -136 45 -143 0 -7 -12 -31 -26 -52
-21 -30 -28 -55 -32 -107 -6 -83 8 -143 48 -206 27 -43 30 -55 30 -134 0 -111
-23 -243 -56 -322 -22 -52 -28 -86 -35 -212 -15 -241 -26 -328 -45 -342 -25
-18 -20 -65 13 -120 38 -66 151 -176 211 -207 27 -14 53 -33 57 -43 8 -21 24
-286 25 -424 l0 -95 160 -215 c88 -117 172 -236 185 -263 35 -70 33 -126 -7
-196 -17 -30 -45 -80 -62 -110 l-31 -55 0 -245 c0 -214 3 -259 23 -358 66
-327 233 -625 590 -1055 135 -162 170 -192 381 -320 303 -185 475 -277 537
-287 54 -9 393 1 495 15 l36 5 6 -68 c18 -187 0 -437 -38 -520 -47 -103 -206
-222 -377 -283 -48 -18 -88 -34 -88 -37 0 -3 48 -2 108 1 76 3 130 12 187 31
43 14 81 24 83 22 2 -2 -2 -51 -9 -108 -11 -99 -61 -310 -114 -488 -36 -117
-42 -170 -22 -170 24 0 78 69 142 185 75 134 117 181 170 191 89 16 230 -38
334 -130 90 -79 421 -243 566 -281 78 -20 144 -20 152 1 13 35 -132 148 -230
180 -75 24 -217 100 -282 151 -46 36 -56 49 -53 71 4 34 18 37 263 57 110 8
225 18 256 21 l57 7 19 -54 c11 -30 39 -132 63 -227 l42 -172 -28 -42 c-42
-60 -105 -102 -224 -149 -58 -22 -109 -45 -115 -51 -7 -7 72 -9 260 -5 l270 5
143 -149 c84 -87 155 -152 170 -156 32 -8 48 12 57 73 5 39 11 48 39 59 65 27
270 38 621 32 l340 -5 -45 40 c-99 89 -198 117 -503 143 -102 9 -198 20 -214
24 l-28 8 40 20 c22 11 58 26 80 33 88 28 145 52 145 61 0 15 -65 39 -104 39
-19 0 -83 -12 -142 -26 -78 -19 -135 -26 -208 -26 -133 0 -164 12 -213 89
-109 171 -374 794 -413 975 -16 72 -5 102 61 168 38 38 59 50 99 59 67 14 188
71 249 115 64 47 97 98 115 174 18 78 30 96 131 202 45 47 105 120 134 163 28
43 77 102 108 133 62 60 208 161 318 218 39 20 93 54 120 76 132 105 177 136
287 191 137 70 241 137 318 204 83 72 118 85 232 85 145 0 186 12 276 80 148
112 271 260 512 621 185 277 204 327 221 597 18 283 -10 643 -72 922 -16 74
-39 209 -50 300 -44 372 -52 426 -74 518 -13 53 -42 155 -64 225 -59 190 -78
295 -101 577 -11 140 -30 332 -41 425 -27 217 -24 403 7 455 11 19 28 36 38
38 9 2 51 -20 93 -49 98 -67 146 -75 228 -35 69 34 153 110 197 178 30 49 33
59 33 133 0 44 -9 122 -19 172 -17 87 -17 94 -2 118 31 47 55 51 179 26 111
-21 191 -27 221 -15 29 11 16 48 -45 129 -78 103 -90 128 -104 200 -11 62 -10
61 -85 95 -11 5 -16 30 -20 87 -5 66 -11 88 -33 120 -14 21 -30 53 -33 71 -7
34 -29 52 -62 52 -39 0 -46 24 -32 101 8 42 10 73 4 79 -5 5 -29 5 -58 -2 -44
-9 -51 -8 -63 8 -7 10 -13 33 -13 51 0 40 -25 93 -44 93 -7 0 -30 -13 -51 -30
-59 -47 -67 -42 -65 38 4 115 3 115 -83 33 -105 -99 -125 -101 -155 -13 -14
43 -24 58 -40 60 -25 4 -35 -13 -52 -86 l-12 -53 -32 72 c-30 70 -48 91 -60
70z m-3381 -7840 c84 -94 183 -179 273 -234 47 -28 110 -74 139 -101 102 -93
201 -269 264 -469 l27 -87 -267 0 -267 0 -51 68 c-111 146 -176 331 -233 665
-24 145 -26 210 -4 231 14 15 18 15 42 0 15 -10 50 -42 77 -73z"/>
</g>
</svg>
